HIERARCHY
ROOT pelvis
{
	OFFSET 0.00 0.00 0.00
	CHANNELS 6 Xposition Yposition Zposition Xrotation Yrotation Zrotation
	JOINT lfemur
	{
		OFFSET 0.00000 4.04436 0.00000
		CHANNELS 3 Xrotation Yrotation Zrotation
		JOINT ltibia
		{
			OFFSET 0.00000 0.00000 -16.29375
			CHANNELS 3 Xrotation Yrotation Zrotation
			JOINT lfoot
			{
				OFFSET 0.00000 0.00000 -15.07135
				CHANNELS 3 Xrotation Yrotation Zrotation
				JOINT ltoes
				{
					OFFSET 4.08523 0.00000 0.00000
					CHANNELS 3 Xrotation Yrotation Zrotation
				}
			}
		}
	}
	JOINT rfemur
	{
		OFFSET 0.00000 -4.04436 0.00000
		CHANNELS 3 Xrotation Yrotation Zrotation
		JOINT rtibia
		{
			OFFSET 0.00000 0.00000 -16.29375
			CHANNELS 3 Xrotation Yrotation Zrotation
			JOINT rfoot
			{
				OFFSET 0.00000 0.00000 -15.07135
				CHANNELS 3 Xrotation Yrotation Zrotation
				JOINT rtoes
				{
					OFFSET 4.08523 0.00000 0.00000
					CHANNELS 3 Xrotation Yrotation Zrotation
				}
			}
		}
	}
	JOINT thorax
	{
		OFFSET -1.96850 0.00000 3.38723
		CHANNELS 6 Xposition Yposition Zposition Xrotation Yrotation Zrotation
		JOINT head
		{
			OFFSET 0.00000 0.00000 16.93583
			CHANNELS 6 Xposition Yposition Zposition Xrotation Yrotation Zrotation
		}
		JOINT lclavicle
		{
			OFFSET 0.00000 0.00000 14.46426
			CHANNELS 3 Xrotation Yrotation Zrotation
			JOINT lhumerus
			{
				OFFSET 0.00000 6.07503 0.73740
				CHANNELS 3 Xrotation Yrotation Zrotation
				JOINT lradius
				{
					OFFSET 0.00000 0.00000 -10.44175
					CHANNELS 3 Xrotation Yrotation Zrotation
					JOINT lhand
					{
						OFFSET 0.00000 0.00000 -9.67100
						CHANNELS 3 Xrotation Yrotation Zrotation
					}
				}
			}
		}
		JOINT rclavicle
		{
			OFFSET 0.00000 0.00000 14.46426
			CHANNELS 3 Xrotation Yrotation Zrotation
			JOINT rhumerus
			{
				OFFSET 0.00000 -6.07503 0.73740
				CHANNELS 3 Xrotation Yrotation Zrotation
				JOINT rradius
				{
					OFFSET 0.00000 0.00000 -10.44175
					CHANNELS 3 Xrotation Yrotation Zrotation
					JOINT rhand
					{
						OFFSET 0.00000 0.00000 -9.67100
						CHANNELS 3 Xrotation Yrotation Zrotation
					}
				}
			}
		}
	}
}
MOTION
Frames: 11
Frame Time: 0.008333
 42.7794 10.5379 33.1172 0.3387 -0.2978 -85.9275 -3.9997 3.1142 -0.5619 -0.0000 6.8761 0.0000 0.0000 12.6275 5.2835 0.0000 -19.1485 -0.0000 3.9729 3.9418 2.9885 -0.0000 3.7532 0.0000 0.0000 13.1691 -7.9338 0.0000 -20.5247 -0.0000 42.6404 13.3562 36.5259 1.0668 5.2447 5.6024 42.2147 11.1280 53.4724 -7.4184 -16.8336 7.3584 -17.6292 0.0000 -8.2567 22.1339 -0.9286 19.7736 0.0000 -22.8961 -55.8959 6.5299 -3.1964 -0.0000 15.0696 -0.0000 8.9818 -18.6637 4.0297 -35.5583 0.0000 -34.2176 54.9751 -1.3773 -12.5513 0.0000
 42.7833 10.5525 33.1196 0.3258 -0.2915 -85.9321 -4.0102 3.1004 -0.6549 -0.0000 6.8817 -0.0000 0.0000 12.6145 5.3894 0.0000 -18.9793 -0.0000 3.9738 3.9292 3.0717 -0.0000 3.7497 0.0000 0.0000 13.2045 -8.0069 0.0000 -20.5237 -0.0000 42.6414 13.3733 36.5318 1.0806 5.3111 5.6270 42.2199 11.1192 53.4746 -7.4538 -16.9729 7.2352 -17.6538 0.0000 -8.2923 22.0216 -0.9196 19.5764 0.0000 -22.8541 -55.8516 6.6568 -3.2423 0.0000 15.0771 -0.0000 9.0070 -18.6400 3.9934 -35.4557 -0.0000 -34.3822 54.8966 -1.3066 -12.5219 0.0000
 42.7844 10.5616 33.1204 0.3120 -0.2852 -85.9605 -4.0107 3.0890 -0.7138 -0.0000 6.9042 -0.0000 0.0000 12.5958 5.4793 0.0000 -18.9392 -0.0000 3.9799 3.9079 3.1431 -0.0000 3.7821 0.0000 0.0000 13.2098 -8.0645 0.0000 -20.4946 0.0000 42.6412 13.3857 36.5355 1.0793 5.3668 5.6623 42.2230 11.1131 53.4754 -7.4504 -17.0963 7.1696 -17.6676 0.0000 -8.2824 21.8925 -0.8901 19.3631 0.0000 -22.8996 -55.8526 6.5999 -3.2012 -0.0000 15.0636 -0.0000 8.9909 -18.6149 3.9583 -35.1719 -0.0000 -34.5234 54.7356 -1.2343 -12.5587 0.0000
 42.7786 10.5731 33.1207 0.2903 -0.2856 -85.9082 -3.9985 3.0625 -0.7976 -0.0000 6.9509 0.0000 0.0000 12.6351 5.5129 0.0000 -19.0459 -0.0000 3.9991 3.8892 3.1289 -0.0000 3.8280 0.0000 0.0000 13.2082 -8.1079 0.0000 -20.4927 0.0000 42.6347 13.3994 36.5389 1.0580 5.4309 5.6728 42.2250 11.1094 53.4773 -7.4595 -17.1781 7.0325 -17.6597 0.0000 -8.3163 21.7943 -0.8799 19.0252 0.0000 -22.9048 -55.7928 6.4533 -3.2979 0.0000 15.0640 -0.0000 8.9441 -18.5951 3.9335 -34.8355 0.0000 -34.6478 54.5512 -1.2225 -12.5571 0.0000
 42.7802 10.5843 33.1209 0.2687 -0.2818 -85.8966 -3.9982 3.0321 -0.8123 -0.0000 7.0165 0.0000 0.0000 12.6067 5.5196 0.0000 -18.9999 0.0000 4.0024 3.8734 3.1378 -0.0000 3.8642 -0.0000 0.0000 13.2145 -8.1283 0.0000 -20.5047 -0.0000 42.6335 13.4102 36.5428 1.0503 5.4900 5.6801 42.2284 11.1038 53.4788 -7.4608 -17.2791 6.9413 -17.6614 0.0000 -8.3216 21.6641 -0.8316 18.7706 -0.0000 -22.9893 -55.7727 6.2586 -3.3081 -0.0000 15.0738 -0.0000 8.8971 -18.6025 3.8923 -34.4929 -0.0000 -34.7536 54.4000 -1.2214 -12.5723 -0.0000
 42.7793 10.5957 33.1212 0.2476 -0.2804 -85.8713 -3.9949 3.0035 -0.8491 -0.0000 7.0731 0.0000 0.0000 12.6040 5.5328 0.0000 -19.0124 -0.0000 4.0102 3.8561 3.1390 -0.0000 3.9042 0.0000 0.0000 13.2085 -8.1605 0.0000 -20.4907 -0.0000 42.6301 13.4210 36.5466 1.0331 5.5441 5.6941 42.2316 11.1000 53.4802 -7.4600 -17.3566 6.8341 -17.6602 0.0000 -8.3425 21.5490 -0.7944 18.4804 0.0000 -23.0389 -55.7198 6.1151 -3.3594 -0.0000 15.0844 -0.0000 8.8526 -18.6045 3.8653 -34.1494 -0.0000 -34.8538 54.2364 -1.2185 -12.5960 -0.0000
 42.7807 10.6069 33.1216 0.2281 -0.2783 -85.8586 -3.9971 2.9748 -0.8749 -0.0000 7.1308 -0.0000 -0.0000 12.5877 5.5501 0.0000 -18.9870 0.0000 4.0120 3.8390 3.1493 -0.0000 3.9394 -0.0000 0.0000 13.2127 -8.1828 0.0000 -20.4957 0.0000 42.6286 13.4312 36.5503 1.0201 5.5950 5.7122 42.2349 11.0965 53.4818 -7.4616 -17.4277 6.7395 -17.6620 0.0000 -8.3551 21.4231 -0.7498 18.2060 0.0000 -23.1188 -55.6808 5.9265 -3.3965 0.0000 15.0992 -0.0000 8.8123 -18.6159 3.8422 -33.8100 0.0000 -34.9483 54.0993 -1.2002 -12.6293 0.0000
 42.7825 10.6183 33.1220 0.2099 -0.2766 -85.8479 -4.0014 2.9475 -0.9087 -0.0000 7.1823 -0.0000 0.0000 12.5772 5.5767 0.0000 -18.9742 -0.0000 4.0129 3.8199 3.1648 -0.0000 3.9760 0.0000 0.0000 13.2115 -8.2103 0.0000 -20.4917 -0.0000 42.6265 13.4416 36.5540 1.0063 5.6427 5.7395 42.2385 11.0938 53.4834 -7.4639 -17.4875 6.6417 -17.6649 0.0000 -8.3680 21.3008 -0.7124 17.9108 0.0000 -23.1929 -55.6178 5.7751 -3.4268 -0.0000 15.1133 -0.0000 8.7763 -18.6256 3.8305 -33.4747 -0.0000 -35.0439 53.9634 -1.1612 -12.6841 -0.0000
 42.7844 10.6295 33.1224 0.1930 -0.2756 -85.8398 -4.0073 2.9215 -0.9444 -0.0000 7.2300 0.0000 0.0000 12.5645 5.6072 0.0000 -18.9554 -0.0000 4.0129 3.7995 3.1816 -0.0000 4.0134 0.0000 0.0000 13.2079 -8.2375 0.0000 -20.4936 -0.0000 42.6248 13.4519 36.5574 0.9936 5.6867 5.7703 42.2420 11.0919 53.4850 -7.4687 -17.5356 6.5498 -17.6706 0.0000 -8.3730 21.1778 -0.6788 17.6097 0.0000 -23.2763 -55.5499 5.6590 -3.4351 -0.0000 15.1263 -0.0000 8.7449 -18.6329 3.8277 -33.1484 -0.0000 -35.1412 53.8347 -1.1034 -12.7480 0.0000
 42.7863 10.6406 33.1227 0.1782 -0.2747 -85.8292 -4.0147 2.8980 -0.9889 -0.0000 7.2717 0.0000 0.0000 12.5596 5.6366 0.0000 -18.9589 0.0000 4.0116 3.7801 3.1971 -0.0000 4.0491 -0.0000 0.0000 13.1955 -8.2644 0.0000 -20.5166 -0.0000 42.6226 13.4624 36.5608 0.9832 5.7261 5.8058 42.2455 11.0906 53.4866 -7.4789 -17.5683 6.4595 -17.6797 0.0000 -8.3725 21.0597 -0.6575 17.2983 0.0000 -23.3553 -55.4688 5.5745 -3.4320 0.0000 15.1386 -0.0000 8.7222 -18.6325 3.8348 -32.8593 0.0000 -35.2354 53.7371 -1.0362 -12.8647 -0.0000
 42.7879 10.6515 33.1231 0.1631 -0.2743 -85.8175 -4.0212 2.8741 -1.0399 -0.0000 7.3132 0.0000 0.0000 12.5503 5.6797 0.0000 -18.9459 -0.0000 4.0120 3.7594 3.2075 -0.0000 4.0861 0.0000 -0.0000 13.1836 -8.2900 0.0000 -20.5049 -0.0000 42.6207 13.4725 36.5638 0.9719 5.7629 5.8389 42.2495 11.0905 53.4883 -7.4855 -17.5906 6.3738 -17.6913 0.0000 -8.3627 20.9449 -0.6392 16.9829 0.0000 -23.4432 -55.3756 5.5056 -3.4154 -0.0000 15.1481 -0.0000 8.7035 -18.6277 3.8484 -32.5811 -0.0000 -35.3306 53.6345 -0.9712 -12.9396 0.0000
